<mxfile host="app.diagrams.net" modified="2021-08-29T06:47:35.395Z" agent="5.0 (Windows NT 10.0; Win64; x64) AppleWebKit/537.36 (KHTML, like Gecko) Chrome/92.0.4515.159 Safari/537.36" etag="F4KwRmHDDsiZtqp2nyjL" version="14.8.4" type="github">
  <diagram id="4w0ccPDh1an9Qw12JjNh" name="Page-1">
    <mxGraphModel dx="1673" dy="2065" grid="1" gridSize="10" guides="1" tooltips="1" connect="1" arrows="1" fold="1" page="1" pageScale="1" pageWidth="827" pageHeight="1169" math="0" shadow="0">
      <root>
        <mxCell id="0" />
        <mxCell id="1" parent="0" />
        <mxCell id="yW3tKd6YztMTBVNPVT-j-6" value="" style="edgeStyle=orthogonalEdgeStyle;rounded=0;orthogonalLoop=1;jettySize=auto;html=1;" edge="1" parent="1" source="yW3tKd6YztMTBVNPVT-j-1" target="yW3tKd6YztMTBVNPVT-j-5">
          <mxGeometry relative="1" as="geometry">
            <Array as="points">
              <mxPoint x="170" y="240" />
              <mxPoint x="170" y="150" />
            </Array>
          </mxGeometry>
        </mxCell>
        <mxCell id="yW3tKd6YztMTBVNPVT-j-12" style="edgeStyle=orthogonalEdgeStyle;rounded=0;orthogonalLoop=1;jettySize=auto;html=1;entryX=0;entryY=0.5;entryDx=0;entryDy=0;" edge="1" parent="1" source="yW3tKd6YztMTBVNPVT-j-1" target="yW3tKd6YztMTBVNPVT-j-10">
          <mxGeometry relative="1" as="geometry">
            <Array as="points">
              <mxPoint x="170" y="240" />
              <mxPoint x="170" y="320" />
            </Array>
          </mxGeometry>
        </mxCell>
        <mxCell id="yW3tKd6YztMTBVNPVT-j-1" value="24岁" style="rounded=1;whiteSpace=wrap;html=1;" vertex="1" parent="1">
          <mxGeometry y="210" width="120" height="60" as="geometry" />
        </mxCell>
        <mxCell id="yW3tKd6YztMTBVNPVT-j-4" value="" style="endArrow=none;html=1;" edge="1" parent="1">
          <mxGeometry width="50" height="50" relative="1" as="geometry">
            <mxPoint x="160" y="560" as="sourcePoint" />
            <mxPoint x="160" y="10" as="targetPoint" />
          </mxGeometry>
        </mxCell>
        <mxCell id="yW3tKd6YztMTBVNPVT-j-17" value="" style="edgeStyle=orthogonalEdgeStyle;rounded=0;orthogonalLoop=1;jettySize=auto;html=1;" edge="1" parent="1" source="yW3tKd6YztMTBVNPVT-j-5" target="yW3tKd6YztMTBVNPVT-j-16">
          <mxGeometry relative="1" as="geometry" />
        </mxCell>
        <mxCell id="yW3tKd6YztMTBVNPVT-j-5" value="备战考研&lt;br&gt;并考上研究生" style="rounded=1;whiteSpace=wrap;html=1;" vertex="1" parent="1">
          <mxGeometry x="200" y="120" width="120" height="60" as="geometry" />
        </mxCell>
        <mxCell id="yW3tKd6YztMTBVNPVT-j-7" value="当上研究生" style="text;html=1;strokeColor=none;fillColor=none;align=center;verticalAlign=middle;whiteSpace=wrap;rounded=0;" vertex="1" parent="1">
          <mxGeometry x="85" y="140" width="90" height="20" as="geometry" />
        </mxCell>
        <mxCell id="yW3tKd6YztMTBVNPVT-j-25" value="" style="edgeStyle=orthogonalEdgeStyle;rounded=0;orthogonalLoop=1;jettySize=auto;html=1;" edge="1" parent="1" source="yW3tKd6YztMTBVNPVT-j-10" target="yW3tKd6YztMTBVNPVT-j-24">
          <mxGeometry relative="1" as="geometry" />
        </mxCell>
        <mxCell id="yW3tKd6YztMTBVNPVT-j-10" value="或许能到二线大厂，&lt;br&gt;" style="rounded=1;whiteSpace=wrap;html=1;" vertex="1" parent="1">
          <mxGeometry x="200" y="290" width="130" height="60" as="geometry" />
        </mxCell>
        <mxCell id="yW3tKd6YztMTBVNPVT-j-11" value="上班上下去" style="text;html=1;strokeColor=none;fillColor=none;align=center;verticalAlign=middle;whiteSpace=wrap;rounded=0;" vertex="1" parent="1">
          <mxGeometry x="95" y="280" width="70" height="20" as="geometry" />
        </mxCell>
        <mxCell id="yW3tKd6YztMTBVNPVT-j-13" value="" style="endArrow=none;html=1;" edge="1" parent="1">
          <mxGeometry width="50" height="50" relative="1" as="geometry">
            <mxPoint x="360" y="560" as="sourcePoint" />
            <mxPoint x="360" y="-86.67" as="targetPoint" />
          </mxGeometry>
        </mxCell>
        <mxCell id="yW3tKd6YztMTBVNPVT-j-14" value="24岁" style="text;html=1;strokeColor=none;fillColor=none;align=center;verticalAlign=middle;whiteSpace=wrap;rounded=0;" vertex="1" parent="1">
          <mxGeometry x="60" y="10" width="40" height="20" as="geometry" />
        </mxCell>
        <mxCell id="yW3tKd6YztMTBVNPVT-j-15" value="25岁" style="text;html=1;strokeColor=none;fillColor=none;align=center;verticalAlign=middle;whiteSpace=wrap;rounded=0;" vertex="1" parent="1">
          <mxGeometry x="240" y="10" width="40" height="20" as="geometry" />
        </mxCell>
        <mxCell id="yW3tKd6YztMTBVNPVT-j-21" value="" style="edgeStyle=orthogonalEdgeStyle;rounded=0;orthogonalLoop=1;jettySize=auto;html=1;" edge="1" parent="1" source="yW3tKd6YztMTBVNPVT-j-16" target="yW3tKd6YztMTBVNPVT-j-20">
          <mxGeometry relative="1" as="geometry" />
        </mxCell>
        <mxCell id="yW3tKd6YztMTBVNPVT-j-16" value="电子科大&lt;br&gt;攻读研究生" style="rounded=1;whiteSpace=wrap;html=1;" vertex="1" parent="1">
          <mxGeometry x="400" y="120" width="120" height="60" as="geometry" />
        </mxCell>
        <mxCell id="yW3tKd6YztMTBVNPVT-j-18" value="" style="endArrow=none;html=1;" edge="1" parent="1">
          <mxGeometry width="50" height="50" relative="1" as="geometry">
            <mxPoint x="560" y="563.3333333333335" as="sourcePoint" />
            <mxPoint x="560" y="-90" as="targetPoint" />
          </mxGeometry>
        </mxCell>
        <mxCell id="yW3tKd6YztMTBVNPVT-j-19" value="" style="endArrow=none;html=1;" edge="1" parent="1">
          <mxGeometry width="50" height="50" relative="1" as="geometry">
            <mxPoint x="760" y="563.3333333333335" as="sourcePoint" />
            <mxPoint x="760" y="-90" as="targetPoint" />
          </mxGeometry>
        </mxCell>
        <mxCell id="yW3tKd6YztMTBVNPVT-j-53" value="" style="edgeStyle=orthogonalEdgeStyle;rounded=0;orthogonalLoop=1;jettySize=auto;html=1;fontSize=17;" edge="1" parent="1" source="yW3tKd6YztMTBVNPVT-j-20" target="yW3tKd6YztMTBVNPVT-j-52">
          <mxGeometry relative="1" as="geometry" />
        </mxCell>
        <mxCell id="yW3tKd6YztMTBVNPVT-j-20" value="国企，或者头部私企上班" style="whiteSpace=wrap;html=1;rounded=1;" vertex="1" parent="1">
          <mxGeometry x="600" y="120" width="120" height="60" as="geometry" />
        </mxCell>
        <mxCell id="yW3tKd6YztMTBVNPVT-j-22" value="26-28岁" style="text;html=1;strokeColor=none;fillColor=none;align=center;verticalAlign=middle;whiteSpace=wrap;rounded=0;" vertex="1" parent="1">
          <mxGeometry x="440" y="10" width="50" height="20" as="geometry" />
        </mxCell>
        <mxCell id="yW3tKd6YztMTBVNPVT-j-28" value="" style="edgeStyle=orthogonalEdgeStyle;rounded=0;orthogonalLoop=1;jettySize=auto;html=1;" edge="1" parent="1" source="yW3tKd6YztMTBVNPVT-j-24" target="yW3tKd6YztMTBVNPVT-j-27">
          <mxGeometry relative="1" as="geometry" />
        </mxCell>
        <mxCell id="yW3tKd6YztMTBVNPVT-j-24" value="或许能到稍次的大厂上班，大概率搬砖。&lt;br&gt;" style="whiteSpace=wrap;html=1;rounded=1;" vertex="1" parent="1">
          <mxGeometry x="400" y="290" width="120" height="60" as="geometry" />
        </mxCell>
        <mxCell id="yW3tKd6YztMTBVNPVT-j-26" value="28-35岁" style="text;html=1;strokeColor=none;fillColor=none;align=center;verticalAlign=middle;whiteSpace=wrap;rounded=0;" vertex="1" parent="1">
          <mxGeometry x="640" y="10" width="50" height="20" as="geometry" />
        </mxCell>
        <mxCell id="yW3tKd6YztMTBVNPVT-j-73" value="" style="edgeStyle=orthogonalEdgeStyle;rounded=0;orthogonalLoop=1;jettySize=auto;html=1;fontSize=17;" edge="1" parent="1" source="yW3tKd6YztMTBVNPVT-j-27" target="yW3tKd6YztMTBVNPVT-j-72">
          <mxGeometry relative="1" as="geometry" />
        </mxCell>
        <mxCell id="yW3tKd6YztMTBVNPVT-j-27" value="或许拼劲全力，备受挫折，进了大厂，然后做普通的开发。" style="whiteSpace=wrap;html=1;rounded=1;" vertex="1" parent="1">
          <mxGeometry x="600" y="290" width="130" height="60" as="geometry" />
        </mxCell>
        <mxCell id="yW3tKd6YztMTBVNPVT-j-30" value="平台的重要性不言而喻，被动努力即可，周围都是优秀的人，" style="rounded=1;whiteSpace=wrap;html=1;" vertex="1" parent="1">
          <mxGeometry x="200" y="60" width="900" height="20" as="geometry" />
        </mxCell>
        <mxCell id="yW3tKd6YztMTBVNPVT-j-34" value="" style="edgeStyle=orthogonalEdgeStyle;rounded=0;orthogonalLoop=1;jettySize=auto;html=1;" edge="1" parent="1" source="yW3tKd6YztMTBVNPVT-j-31" target="yW3tKd6YztMTBVNPVT-j-33">
          <mxGeometry relative="1" as="geometry" />
        </mxCell>
        <mxCell id="yW3tKd6YztMTBVNPVT-j-31" value="&lt;span&gt;这时候还没进大厂，那人生就止步于此。&lt;/span&gt;" style="rounded=1;whiteSpace=wrap;html=1;" vertex="1" parent="1">
          <mxGeometry x="400" y="390" width="120" height="60" as="geometry" />
        </mxCell>
        <mxCell id="yW3tKd6YztMTBVNPVT-j-55" value="" style="edgeStyle=orthogonalEdgeStyle;rounded=0;orthogonalLoop=1;jettySize=auto;html=1;fontSize=17;" edge="1" parent="1" source="yW3tKd6YztMTBVNPVT-j-33" target="yW3tKd6YztMTBVNPVT-j-54">
          <mxGeometry relative="1" as="geometry" />
        </mxCell>
        <mxCell id="yW3tKd6YztMTBVNPVT-j-33" value="&lt;span&gt;被生活折磨的奄奄一息，那就这样了。&lt;/span&gt;" style="whiteSpace=wrap;html=1;rounded=1;" vertex="1" parent="1">
          <mxGeometry x="600" y="390" width="120" height="60" as="geometry" />
        </mxCell>
        <mxCell id="yW3tKd6YztMTBVNPVT-j-37" value="" style="edgeStyle=orthogonalEdgeStyle;rounded=0;orthogonalLoop=1;jettySize=auto;html=1;" edge="1" parent="1" source="yW3tKd6YztMTBVNPVT-j-35" target="yW3tKd6YztMTBVNPVT-j-31">
          <mxGeometry relative="1" as="geometry" />
        </mxCell>
        <mxCell id="yW3tKd6YztMTBVNPVT-j-35" value="&lt;span&gt;或许依旧在小厂搬砖。&lt;/span&gt;" style="rounded=1;whiteSpace=wrap;html=1;" vertex="1" parent="1">
          <mxGeometry x="200" y="390" width="130" height="60" as="geometry" />
        </mxCell>
        <mxCell id="yW3tKd6YztMTBVNPVT-j-36" value="" style="endArrow=classic;html=1;entryX=0;entryY=0.5;entryDx=0;entryDy=0;" edge="1" parent="1" target="yW3tKd6YztMTBVNPVT-j-35">
          <mxGeometry width="50" height="50" relative="1" as="geometry">
            <mxPoint x="180" y="320" as="sourcePoint" />
            <mxPoint x="180" y="430" as="targetPoint" />
          </mxGeometry>
        </mxCell>
        <mxCell id="yW3tKd6YztMTBVNPVT-j-38" value="" style="shape=hexagon;perimeter=hexagonPerimeter2;whiteSpace=wrap;html=1;fixedSize=1;" vertex="1" parent="1">
          <mxGeometry x="15" y="350" width="120" height="80" as="geometry" />
        </mxCell>
        <mxCell id="yW3tKd6YztMTBVNPVT-j-39" value="普通人" style="shape=umlActor;verticalLabelPosition=bottom;verticalAlign=top;html=1;outlineConnect=0;" vertex="1" parent="1">
          <mxGeometry x="60" y="367.5" width="30" height="60" as="geometry" />
        </mxCell>
        <mxCell id="yW3tKd6YztMTBVNPVT-j-40" value="人生定位" style="text;html=1;strokeColor=none;fillColor=none;align=center;verticalAlign=middle;whiteSpace=wrap;rounded=0;strokeWidth=2;fontSize=17;" vertex="1" parent="1">
          <mxGeometry x="32.5" y="327.5" width="85" height="20" as="geometry" />
        </mxCell>
        <mxCell id="yW3tKd6YztMTBVNPVT-j-41" value="始终在不如自己期望的环境中发展，一直刻苦钻研，疲于奔波寻找机会，可以成功，但是更多的是失败" style="rounded=1;whiteSpace=wrap;html=1;" vertex="1" parent="1">
          <mxGeometry x="185" y="460" width="935" height="20" as="geometry" />
        </mxCell>
        <mxCell id="yW3tKd6YztMTBVNPVT-j-43" value="努力一年，用这一年的时间，完全改变自己" style="rounded=1;whiteSpace=wrap;html=1;fontSize=17;strokeWidth=2;" vertex="1" parent="1">
          <mxGeometry x="240" y="190" width="390" height="20" as="geometry" />
        </mxCell>
        <mxCell id="yW3tKd6YztMTBVNPVT-j-48" value="平台的作用大于个人的努力" style="rounded=1;whiteSpace=wrap;html=1;fontSize=17;strokeWidth=2;" vertex="1" parent="1">
          <mxGeometry x="15" y="457.5" width="130" height="55" as="geometry" />
        </mxCell>
        <mxCell id="yW3tKd6YztMTBVNPVT-j-49" value="生活充满希望，随时随地充斥着机遇，吃穿住行都是优质的。" style="rounded=1;whiteSpace=wrap;html=1;" vertex="1" parent="1">
          <mxGeometry x="200" y="90" width="900" height="20" as="geometry" />
        </mxCell>
        <mxCell id="yW3tKd6YztMTBVNPVT-j-50" value="生活充满失望，机遇可遇而不可求，吃穿住行难以让人觉得舒适。" style="rounded=1;whiteSpace=wrap;html=1;" vertex="1" parent="1">
          <mxGeometry x="185" y="490" width="935" height="20" as="geometry" />
        </mxCell>
        <mxCell id="yW3tKd6YztMTBVNPVT-j-51" value="一直盲目的努力，受着各种挫折，进步微乎其微" style="rounded=1;whiteSpace=wrap;html=1;fontSize=17;strokeWidth=2;" vertex="1" parent="1">
          <mxGeometry x="240" y="520" width="390" height="20" as="geometry" />
        </mxCell>
        <mxCell id="yW3tKd6YztMTBVNPVT-j-69" value="" style="edgeStyle=orthogonalEdgeStyle;rounded=0;orthogonalLoop=1;jettySize=auto;html=1;fontSize=17;" edge="1" parent="1" source="yW3tKd6YztMTBVNPVT-j-52" target="yW3tKd6YztMTBVNPVT-j-68">
          <mxGeometry relative="1" as="geometry" />
        </mxCell>
        <mxCell id="yW3tKd6YztMTBVNPVT-j-52" value="展露锋芒，事业到达一定地位，和优秀朋友们谈笑风生" style="whiteSpace=wrap;html=1;rounded=1;" vertex="1" parent="1">
          <mxGeometry x="800" y="120" width="120" height="60" as="geometry" />
        </mxCell>
        <mxCell id="yW3tKd6YztMTBVNPVT-j-77" value="" style="edgeStyle=orthogonalEdgeStyle;rounded=0;orthogonalLoop=1;jettySize=auto;html=1;fontSize=17;" edge="1" parent="1" source="yW3tKd6YztMTBVNPVT-j-54" target="yW3tKd6YztMTBVNPVT-j-76">
          <mxGeometry relative="1" as="geometry" />
        </mxCell>
        <mxCell id="yW3tKd6YztMTBVNPVT-j-54" value="普通开发，四处求职。&lt;br&gt;为生计奔波。" style="whiteSpace=wrap;html=1;rounded=1;" vertex="1" parent="1">
          <mxGeometry x="800" y="390" width="130" height="60" as="geometry" />
        </mxCell>
        <mxCell id="yW3tKd6YztMTBVNPVT-j-56" value="35-45岁" style="text;html=1;strokeColor=none;fillColor=none;align=center;verticalAlign=middle;whiteSpace=wrap;rounded=0;" vertex="1" parent="1">
          <mxGeometry x="850" y="10" width="50" height="20" as="geometry" />
        </mxCell>
        <mxCell id="yW3tKd6YztMTBVNPVT-j-71" value="" style="edgeStyle=orthogonalEdgeStyle;rounded=0;orthogonalLoop=1;jettySize=auto;html=1;fontSize=17;" edge="1" parent="1" source="yW3tKd6YztMTBVNPVT-j-58" target="yW3tKd6YztMTBVNPVT-j-70">
          <mxGeometry relative="1" as="geometry" />
        </mxCell>
        <mxCell id="yW3tKd6YztMTBVNPVT-j-58" value="或许天资稍差，工作已无法进步，停留原地。" style="whiteSpace=wrap;html=1;rounded=1;" vertex="1" parent="1">
          <mxGeometry x="800" y="210" width="120" height="60" as="geometry" />
        </mxCell>
        <mxCell id="yW3tKd6YztMTBVNPVT-j-63" value="" style="endArrow=classic;html=1;fontSize=17;exitX=1;exitY=0.5;exitDx=0;exitDy=0;entryX=0;entryY=0.5;entryDx=0;entryDy=0;" edge="1" parent="1" source="yW3tKd6YztMTBVNPVT-j-20" target="yW3tKd6YztMTBVNPVT-j-58">
          <mxGeometry width="50" height="50" relative="1" as="geometry">
            <mxPoint x="720" y="240" as="sourcePoint" />
            <mxPoint x="770" y="190" as="targetPoint" />
          </mxGeometry>
        </mxCell>
        <mxCell id="yW3tKd6YztMTBVNPVT-j-64" value="" style="endArrow=none;html=1;" edge="1" parent="1">
          <mxGeometry width="50" height="50" relative="1" as="geometry">
            <mxPoint x="960" y="560" as="sourcePoint" />
            <mxPoint x="960" y="-86.67" as="targetPoint" />
          </mxGeometry>
        </mxCell>
        <mxCell id="yW3tKd6YztMTBVNPVT-j-65" value="" style="endArrow=none;html=1;" edge="1" parent="1">
          <mxGeometry width="50" height="50" relative="1" as="geometry">
            <mxPoint x="1160" y="563.3333333333335" as="sourcePoint" />
            <mxPoint x="1160" y="-83.33" as="targetPoint" />
          </mxGeometry>
        </mxCell>
        <mxCell id="yW3tKd6YztMTBVNPVT-j-66" value="45-55岁" style="text;html=1;strokeColor=none;fillColor=none;align=center;verticalAlign=middle;whiteSpace=wrap;rounded=0;" vertex="1" parent="1">
          <mxGeometry x="1040" y="10" width="50" height="20" as="geometry" />
        </mxCell>
        <mxCell id="yW3tKd6YztMTBVNPVT-j-85" value="" style="edgeStyle=orthogonalEdgeStyle;rounded=0;orthogonalLoop=1;jettySize=auto;html=1;fontSize=17;" edge="1" parent="1" source="yW3tKd6YztMTBVNPVT-j-68" target="yW3tKd6YztMTBVNPVT-j-84">
          <mxGeometry relative="1" as="geometry" />
        </mxCell>
        <mxCell id="yW3tKd6YztMTBVNPVT-j-68" value="普通能达到的最高成就" style="whiteSpace=wrap;html=1;rounded=1;" vertex="1" parent="1">
          <mxGeometry x="1000" y="120" width="130" height="60" as="geometry" />
        </mxCell>
        <mxCell id="yW3tKd6YztMTBVNPVT-j-83" style="edgeStyle=orthogonalEdgeStyle;rounded=0;orthogonalLoop=1;jettySize=auto;html=1;entryX=0;entryY=0.5;entryDx=0;entryDy=0;fontSize=17;" edge="1" parent="1" source="yW3tKd6YztMTBVNPVT-j-70" target="yW3tKd6YztMTBVNPVT-j-78">
          <mxGeometry relative="1" as="geometry">
            <Array as="points">
              <mxPoint x="1190" y="240" />
              <mxPoint x="1190" y="240" />
            </Array>
          </mxGeometry>
        </mxCell>
        <mxCell id="yW3tKd6YztMTBVNPVT-j-70" value="生活稳定平淡，&lt;br&gt;有时间做自己喜欢的事情。" style="whiteSpace=wrap;html=1;rounded=1;" vertex="1" parent="1">
          <mxGeometry x="1000" y="210" width="150" height="60" as="geometry" />
        </mxCell>
        <mxCell id="yW3tKd6YztMTBVNPVT-j-75" value="" style="edgeStyle=orthogonalEdgeStyle;rounded=0;orthogonalLoop=1;jettySize=auto;html=1;fontSize=17;" edge="1" parent="1" source="yW3tKd6YztMTBVNPVT-j-72" target="yW3tKd6YztMTBVNPVT-j-74">
          <mxGeometry relative="1" as="geometry" />
        </mxCell>
        <mxCell id="yW3tKd6YztMTBVNPVT-j-72" value="年限已至，或被裁员&lt;br&gt;，或转管理也没有任何优势。" style="whiteSpace=wrap;html=1;rounded=1;" vertex="1" parent="1">
          <mxGeometry x="800" y="290" width="120" height="60" as="geometry" />
        </mxCell>
        <mxCell id="yW3tKd6YztMTBVNPVT-j-87" value="" style="edgeStyle=orthogonalEdgeStyle;rounded=0;orthogonalLoop=1;jettySize=auto;html=1;fontSize=17;" edge="1" parent="1" source="yW3tKd6YztMTBVNPVT-j-74" target="yW3tKd6YztMTBVNPVT-j-86">
          <mxGeometry relative="1" as="geometry" />
        </mxCell>
        <mxCell id="yW3tKd6YztMTBVNPVT-j-74" value="转行，或小公司管理，暮年只可这样。" style="whiteSpace=wrap;html=1;rounded=1;" vertex="1" parent="1">
          <mxGeometry x="1000" y="290" width="130" height="60" as="geometry" />
        </mxCell>
        <mxCell id="yW3tKd6YztMTBVNPVT-j-89" value="" style="edgeStyle=orthogonalEdgeStyle;rounded=0;orthogonalLoop=1;jettySize=auto;html=1;fontSize=17;" edge="1" parent="1" source="yW3tKd6YztMTBVNPVT-j-76" target="yW3tKd6YztMTBVNPVT-j-88">
          <mxGeometry relative="1" as="geometry" />
        </mxCell>
        <mxCell id="yW3tKd6YztMTBVNPVT-j-76" value="另谋他职，勉强维生" style="whiteSpace=wrap;html=1;rounded=1;" vertex="1" parent="1">
          <mxGeometry x="1000" y="390" width="140" height="60" as="geometry" />
        </mxCell>
        <mxCell id="yW3tKd6YztMTBVNPVT-j-95" value="" style="edgeStyle=orthogonalEdgeStyle;rounded=0;orthogonalLoop=1;jettySize=auto;html=1;fontSize=17;" edge="1" parent="1" source="yW3tKd6YztMTBVNPVT-j-78" target="yW3tKd6YztMTBVNPVT-j-94">
          <mxGeometry relative="1" as="geometry" />
        </mxCell>
        <mxCell id="yW3tKd6YztMTBVNPVT-j-78" value="老年时光" style="whiteSpace=wrap;html=1;rounded=1;" vertex="1" parent="1">
          <mxGeometry x="1210" y="210" width="120" height="60" as="geometry" />
        </mxCell>
        <mxCell id="yW3tKd6YztMTBVNPVT-j-80" value="55-65岁" style="text;html=1;strokeColor=none;fillColor=none;align=center;verticalAlign=middle;whiteSpace=wrap;rounded=0;" vertex="1" parent="1">
          <mxGeometry x="1230" y="10" width="50" height="20" as="geometry" />
        </mxCell>
        <mxCell id="yW3tKd6YztMTBVNPVT-j-82" value="" style="endArrow=none;html=1;" edge="1" parent="1">
          <mxGeometry width="50" height="50" relative="1" as="geometry">
            <mxPoint x="1360" y="563.3333333333334" as="sourcePoint" />
            <mxPoint x="1360" y="-90.00000000000053" as="targetPoint" />
          </mxGeometry>
        </mxCell>
        <mxCell id="yW3tKd6YztMTBVNPVT-j-91" value="" style="edgeStyle=orthogonalEdgeStyle;rounded=0;orthogonalLoop=1;jettySize=auto;html=1;fontSize=17;" edge="1" parent="1" source="yW3tKd6YztMTBVNPVT-j-84" target="yW3tKd6YztMTBVNPVT-j-90">
          <mxGeometry relative="1" as="geometry" />
        </mxCell>
        <mxCell id="yW3tKd6YztMTBVNPVT-j-84" value="德高望重" style="whiteSpace=wrap;html=1;rounded=1;" vertex="1" parent="1">
          <mxGeometry x="1210" y="120" width="120" height="60" as="geometry" />
        </mxCell>
        <mxCell id="yW3tKd6YztMTBVNPVT-j-97" value="" style="edgeStyle=orthogonalEdgeStyle;rounded=0;orthogonalLoop=1;jettySize=auto;html=1;fontSize=17;" edge="1" parent="1" source="yW3tKd6YztMTBVNPVT-j-86" target="yW3tKd6YztMTBVNPVT-j-96">
          <mxGeometry relative="1" as="geometry" />
        </mxCell>
        <mxCell id="yW3tKd6YztMTBVNPVT-j-86" value="生活较为操劳" style="whiteSpace=wrap;html=1;rounded=1;" vertex="1" parent="1">
          <mxGeometry x="1210" y="290" width="120" height="60" as="geometry" />
        </mxCell>
        <mxCell id="yW3tKd6YztMTBVNPVT-j-99" value="" style="edgeStyle=orthogonalEdgeStyle;rounded=0;orthogonalLoop=1;jettySize=auto;html=1;fontSize=17;" edge="1" parent="1" source="yW3tKd6YztMTBVNPVT-j-88" target="yW3tKd6YztMTBVNPVT-j-98">
          <mxGeometry relative="1" as="geometry" />
        </mxCell>
        <mxCell id="yW3tKd6YztMTBVNPVT-j-88" value="疲于奔命，或许已经挂了。" style="whiteSpace=wrap;html=1;rounded=1;" vertex="1" parent="1">
          <mxGeometry x="1210" y="390" width="120" height="60" as="geometry" />
        </mxCell>
        <mxCell id="yW3tKd6YztMTBVNPVT-j-90" value="颐养天年" style="whiteSpace=wrap;html=1;rounded=1;" vertex="1" parent="1">
          <mxGeometry x="1400" y="120" width="120" height="60" as="geometry" />
        </mxCell>
        <mxCell id="yW3tKd6YztMTBVNPVT-j-92" value="65往后" style="text;html=1;strokeColor=none;fillColor=none;align=center;verticalAlign=middle;whiteSpace=wrap;rounded=0;" vertex="1" parent="1">
          <mxGeometry x="1440" y="10" width="70" height="20" as="geometry" />
        </mxCell>
        <mxCell id="yW3tKd6YztMTBVNPVT-j-93" value="" style="endArrow=none;html=1;" edge="1" parent="1">
          <mxGeometry width="50" height="50" relative="1" as="geometry">
            <mxPoint x="1560" y="563.3333333333335" as="sourcePoint" />
            <mxPoint x="1560" y="-90.00000000000057" as="targetPoint" />
          </mxGeometry>
        </mxCell>
        <mxCell id="yW3tKd6YztMTBVNPVT-j-94" value="偶有不顺，较为轻松。" style="whiteSpace=wrap;html=1;rounded=1;" vertex="1" parent="1">
          <mxGeometry x="1405" y="210" width="125" height="60" as="geometry" />
        </mxCell>
        <mxCell id="yW3tKd6YztMTBVNPVT-j-96" value="或有不顺，生活普通" style="whiteSpace=wrap;html=1;rounded=1;" vertex="1" parent="1">
          <mxGeometry x="1405" y="290" width="120" height="60" as="geometry" />
        </mxCell>
        <mxCell id="yW3tKd6YztMTBVNPVT-j-98" value="能不能活着，&lt;br&gt;还是个疑问。" style="whiteSpace=wrap;html=1;rounded=1;" vertex="1" parent="1">
          <mxGeometry x="1405" y="390" width="120" height="60" as="geometry" />
        </mxCell>
      </root>
    </mxGraphModel>
  </diagram>
</mxfile>
